<svg xmlns="http://www.w3.org/2000/svg" width="24" height="24" fill="none" viewBox="0 0 24 24" id="youtube-studio"><path fill="#EE4D4D" d="M10.5 2.25C10.0858 2.25 9.75 2.58579 9.75 3V4.58187C9.25957 4.73044 8.78976 4.92626 8.34593 5.16395L7.22703 4.04505C7.08638 3.9044 6.89561 3.82538 6.6967 3.82538C6.49779 3.82538 6.30702 3.9044 6.16637 4.04505L4.04505 6.16637C3.75216 6.45926 3.75216 6.93414 4.04505 7.22703L5.16395 8.34593C4.92626 8.78976 4.73044 9.25957 4.58187 9.75H3C2.58579 9.75 2.25 10.0858 2.25 10.5V13.5C2.25 13.9142 2.58579 14.25 3 14.25H4.58187C4.73044 14.7404 4.92626 15.2102 5.16395 15.6541L4.04505 16.773C3.75216 17.0659 3.75216 17.5407 4.04505 17.8336L6.16637 19.955C6.30702 20.0956 6.49779 20.1746 6.6967 20.1746C6.89561 20.1746 7.08638 20.0956 7.22703 19.955L8.34593 18.836C8.78976 19.0737 9.25957 19.2696 9.75 19.4181V21C9.75 21.4142 10.0858 21.75 10.5 21.75H13.5C13.9142 21.75 14.25 21.4142 14.25 21V19.4181C14.7404 19.2696 15.2102 19.0737 15.6541 18.836L16.773 19.955C17.0659 20.2478 17.5407 20.2478 17.8336 19.955L19.955 17.8336C20.2478 17.5407 20.2478 17.0659 19.955 16.773L18.836 15.6541C19.0737 15.2102 19.2696 14.7404 19.4181 14.25H21C21.4142 14.25 21.75 13.9142 21.75 13.5V10.5C21.75 10.0858 21.4142 9.75 21 9.75H19.4181C19.2696 9.25957 19.0737 8.78976 18.836 8.34593L19.955 7.22703C20.0956 7.08638 20.1746 6.89561 20.1746 6.6967C20.1746 6.49779 20.0956 6.30702 19.955 6.16637L17.8336 4.04505C17.5407 3.75216 17.0659 3.75216 16.773 4.04505L15.6541 5.16395C15.2102 4.92626 14.7404 4.73044 14.25 4.58187V3C14.25 2.58579 13.9142 2.25 13.5 2.25H10.5Z"></path><path fill="#ECEFF1" d="M10.4301 7.88558C10.201 7.72521 9.90169 7.70562 9.65364 7.83477C9.40559 7.96392 9.25 8.22035 9.25 8.5V15.5C9.25 15.7797 9.40559 16.0361 9.65364 16.1652C9.90169 16.2944 10.201 16.2748 10.4301 16.1144L15.4301 12.6144C15.6306 12.4741 15.75 12.2447 15.75 12C15.75 11.7553 15.6306 11.5259 15.4301 11.3856L10.4301 7.88558Z"></path></svg>